<svg height="42" viewBox="0 0 42 42" width="42" xmlns="http://www.w3.org/2000/svg"><path d="m21.002 26.588 10.357 10.604c1.039 1.072 1.715 1.083 2.773 0l2.078-2.128c1.018-1.042 1.087-1.726 0-2.839l-10.965-11.225 10.966-11.225c1.027-1.055 1.047-1.767 0-2.84l-2.078-2.127c-1.078-1.104-1.744-1.053-2.773 0l-10.358 10.604-10.357-10.603c-1.029-1.053-1.695-1.104-2.773 0l-2.078 2.127c-1.048 1.073-1.029 1.785 0 2.84l10.965 11.224-10.965 11.225c-1.087 1.113-1.029 1.797 0 2.839l2.077 2.128c1.049 1.083 1.725 1.072 2.773 0z" fill-rule="evenodd"/></svg>