<svg height="64" viewBox="0 0 64 64" width="64" xmlns="http://www.w3.org/2000/svg"><g fill="none" fill-rule="evenodd"><path d="m6 47.4931282c0-9.6611879 7.8060906-18.040924 17.4504124-18.7177185l39.5495876-2.7754097-9.2537996 23.2968463c-2.5673727 6.4634733-10.2828929 11.7031537-17.2445955 11.7031537h-20.6951496c-5.4159557 0-9.8064553-4.3921963-9.8064553-9.8085938z" fill="#fcc24c"/><path d="m29 39c0-4.9705627 4.0323257-9 8.9969917-9h20.0030083l-3.7850694 9.632349c-1.8159682 4.621326-7.3098198 8.367651-12.2856743 8.367651h-3.9316833c-4.9692224 0-8.997573-4.0283444-8.997573-9z" fill="#ed9111"/><path d="m15 16h17v17h-17z" fill="#fcc24c"/><circle cx="18" cy="16" fill="#fcc24c" r="14"/><circle cx="20" cy="14" fill="#5b68c0" r="3"/><circle cx="7.5" cy="12.5" fill="#5b68c0" r="2.5"/><path d="m8.82918495 17.880555-8.82918495 5.6749689s2.34857572 4.7494128 12.7463365 2.0584158c10.3977608-2.6909969-3.91715155-7.7333847-3.91715155-7.7333847z" fill="#ed9111"/></g></svg>